PathFileType	4	(X/Y/Z)	D:\TRACE\v60_Jaco2_6-2-23\JustArmDRS_Motion1_1-v60.trc
DataRate	CameraRate	NumFrames	NumMarkers	Units	OrigDataRate	OrigDataStartFrame	OrigNumFrames
100.00	100.00	      13	9	mm	100.00	5989	      6844
Frame#	Time	front left toe			Front right toe			aft left toe			aft right toe			Arm			FL body			FR body			AL Body			AR Body			
		X1	Y1	Z1	X2	Y2	Z2	X3	Y3	Z3	X4	Y4	Z4	X5	Y5	Z5	X6	Y6	Z6	X7	Y7	Z7	X8	Y8	Z8	X9	Y9	Z9	

5989	59.880	-250.61378	28.65395	-157.98264	157.13313	28.78795	-202.94044	-184.52493	-2.15232	445.39352	218.27733	1.42720	433.66672	-22.12754	1137.38733	-580.45544	-140.05655	592.34924	-292.70871	20.04317	593.40186	-310.48849	-38.78731	566.19330	646.93298	117.62218	561.10138	631.13696	
5990	59.890	-250.76025	28.68454	-158.00323	156.85991	29.07439	-202.91772	-184.70779	-2.18569	445.40717	218.12677	1.42358	433.71686	-22.71765	1137.47852	-580.21930	-140.86758	592.49213	-292.73557	18.95423	593.33350	-310.19003	-39.42887	566.03180	646.77826	116.95210	561.07617	631.19220	
5991	59.900	-250.95967	28.78148	-157.95781	156.65059	29.18380	-202.88054	-184.74069	-2.25613	445.39279	218.01665	1.40286	433.72952	-23.40160	1137.57410	-579.95190	-141.40967	592.52295	-292.59052	18.32736	593.45636	-309.96997	-39.74450	565.86969	646.90436	116.70646	561.01563	631.21198	
5992	59.910	-251.08449	28.81920	-157.89653	156.56494	29.30944	-202.80933	-184.74150	-2.42694	445.41663	217.93602	1.36494	433.74765	-24.13621	1137.57874	-579.84955	-142.00002	592.74963	-292.40173	17.87378	593.50574	-309.83151	-40.19688	565.78400	647.00366	116.61713	561.14386	631.57385	
5993	59.920	-251.16634	28.80615	-157.84235	156.51891	29.40425	-202.77164	-184.82170	-2.60375	445.48911	217.92996	1.35488	433.76547	-24.73218	1137.68518	-579.78540	-142.37041	592.82172	-292.23022	16.70604	593.44238	-309.47543	-40.45113	565.72662	647.18231	115.96823	560.99054	631.74152	
5994	59.930	-251.21976	28.80410	-157.82195	156.48787	29.43085	-202.72957	-184.86523	-2.75959	445.54349	217.90790	1.31829	433.80386	-25.11959	1137.80005	-579.47986	-142.77939	592.85809	-292.05807	16.23863	593.47314	-309.48123	-40.38135	565.64063	647.56775	115.59303	560.85107	631.83185	
5995	59.940	-251.30374	28.82099	-157.80043	156.48779	29.48589	-202.73441	-184.91098	-2.80813	445.55811	217.80528	1.26851	433.79105	-25.74913	1137.75610	-579.45233	-143.11806	592.90631	-291.88657	16.23326	593.69702	-309.74609	-40.88083	565.61145	647.70905	115.27528	560.78577	631.94238	
5996	59.950	-251.29688	28.80044	-157.73108	156.49692	29.50049	-202.71379	-184.96616	-2.90218	445.58817	217.79826	1.23535	433.82813	-26.27217	1137.91284	-579.20538	-143.52977	592.94147	-291.72357	15.78405	593.75250	-309.58365	-41.03440	565.44653	647.41211	115.13381	560.73883	632.00885	
5997	59.960	-251.38974	28.78904	-157.74568	156.46870	29.52013	-202.67209	-184.97266	-2.97587	445.60968	217.78406	1.16767	433.80423	-26.73374	1137.91052	-579.00995	-144.09457	592.95953	-291.63394	15.61526	593.77252	-309.40524	-41.18801	565.46320	647.47003	114.93734	560.71362	632.05444	
5998	59.970	-251.39499	28.76503	-157.68785	156.50378	29.54969	-202.66035	-185.02420	-3.05451	445.67447	217.72523	1.10593	433.84583	-27.24947	1138.01648	-578.89526	-144.57193	592.94025	-291.61563	15.67644	593.83313	-309.39978	-41.34287	565.44739	647.51740	114.80898	560.73706	632.14581	
5999	59.980	-251.46216	28.76786	-157.71835	156.46883	29.53967	-202.65237	-185.05432	-3.07914	445.66772	217.69542	1.07827	433.86975	-27.54852	1138.06409	-578.89209	-144.86647	592.93060	-291.56628	14.78625	593.82465	-309.20834	-41.68966	565.46289	647.58630	114.50523	560.79663	632.23053	
6000	59.990	-251.44389	28.76341	-157.68349	156.47054	29.54771	-202.64731	-185.02576	-3.14511	445.71191	217.69669	1.10331	433.86246	-27.76550	1137.85852	-578.97583	-145.23143	593.03760	-291.55655	14.48475	593.87988	-309.15475	-41.86952	565.51440	647.64301	114.27377	560.82452	632.27618	
6001	60.000	-251.41638	28.74995	-157.70589	156.41357	29.56341	-202.67921	-185.06049	-3.16013	445.68903	217.68568	1.16282	433.84036	-28.01892	1137.97144	-578.82959	-145.61746	593.17682	-291.56842	13.76441	593.84479	-308.80765	-42.21809	565.55298	647.96735	113.93745	560.86395	632.32178	
